<svg xmlns="http://www.w3.org/2000/svg" width="17" height="18" viewBox="0 0 17 18">
    <path fill="#000" fill-rule="nonzero" d="M8.5.19A8.504 8.504 0 0 0 0 8.69c0 4.692 3.808 8.5 8.5 8.5s8.5-3.808 8.5-8.5S13.192.19 8.5.19zm0 .406c4.475 0 8.1 3.619 8.1 8.094s-3.625 8.1-8.1 8.1a8.098 8.098 0 0 1-8.1-8.1A8.093 8.093 0 0 1 8.5.596zm3.3 5.784a.21.21 0 0 0-.065.03L8.476 8.397l-.024.012a.09.09 0 0 0-.012.006l-.006.006-.006.006-.006.006-.011.012-.006.005-.006.006-.006.012-.006.006-.006.006v.012l-.006.006-.006.012-.006.012v.017l-.006.006v.036 5.976a.2.2 0 1 0 .4 0V8.693l3.187-1.946a.2.2 0 0 0-.143-.37v.002z"/>
</svg>
